<?xml version="1.0" standalone="no"?><!DOCTYPE svg PUBLIC "-//W3C//DTD SVG 1.1//EN" "http://www.w3.org/Graphics/SVG/1.1/DTD/svg11.dtd"><svg t="1595581699555" class="icon" viewBox="0 0 1024 1024" version="1.1" xmlns="http://www.w3.org/2000/svg" p-id="932" xmlns:xlink="http://www.w3.org/1999/xlink" width="200" height="200"><defs><style type="text/css"></style></defs><path d="M622.584488 1002.509325a523.918391 523.918391 0 0 1-136.757995 21.314143c-115.164628 3.847094-273.484966-54.976218-342.949837-198.559703A416.913326 416.913326 0 0 1 93.11263 638.369445a606.134518 606.134518 0 0 1 15.884777-145.289858C117.932593 414.090055 209.332106 255.335368 203.623515 167.534749a100.800074 100.800074 0 0 1 49.112501 78.617233l13.65098-15.512477C370.44469 112.186232 514.4315 63.19783 558.176684 0c-114.171829 234.17635-50.725799 346.331557 37.540194 346.331557 95.618907 0 71.574568-136.168521 71.574568-136.168521L719.816693 276.959761c98.380128 146.841105 151.308699 262.440082 158.227263 344.03571 0 0-22.834366 0.403324-77.15906 0.403324 0 0-4.684768-35.709722-8.438787-52.463196a344.997484 344.997484 0 0 1-306.371417 5.336292 345.338758 345.338758 0 0 0-308.822388 6.57729 465.374304 465.374304 0 0 0-8.376737 89.165716c0 147.740829 106.72584 295.512683 317.1681 295.512683a366.435727 366.435727 0 0 0 133.7796-23.578964zM298.777048 502.604248l39.153491-163.501505 123.200091-33.103626zM428.182129 166.262726l-39.773991 161.702058-123.665465 33.227726z" fill="#0096CE" p-id="933"></path><path d="M682.586748 837.673747h62.049907v155.124767h-62.049907z" fill="#27EFEC" p-id="934"></path><path d="M868.73647 744.598886h62.049907v248.199628h-62.049907z" fill="#27EFEC" p-id="935"></path><path d="M775.661609 682.548979h62.049907v310.249535h-62.049907z" fill="#27EFEC" p-id="936"></path></svg>